<mxfile host="app.diagrams.net" modified="2023-06-18T18:44:10.400Z" agent="Mozilla/5.0 (Windows NT 10.0; Win64; x64) AppleWebKit/537.36 (KHTML, like Gecko) Chrome/114.0.0.0 Safari/537.36 Edg/114.0.1823.51" etag="HGE0krnopLAWibgm5j4Q" version="21.4.0" type="github">
  <diagram name="第 1 页" id="onNldy-fITMc3NeipK9k">
    <mxGraphModel dx="1218" dy="653" grid="0" gridSize="10" guides="1" tooltips="1" connect="1" arrows="1" fold="1" page="0" pageScale="1" pageWidth="827" pageHeight="1169" math="0" shadow="0">
      <root>
        <mxCell id="0" />
        <mxCell id="1" parent="0" />
      </root>
    </mxGraphModel>
  </diagram>
</mxfile>
